PathFileType	4	(X/Y/Z)	C:\Users\Graham\Documents\MATLAB\MOtoNMS_v2_2\MyData\ElaboratedData\S7\22-05-17\staticElaborations\Static1\Static\\Static1.trc
DataRate	CameraRate	NumFrames	NumMarkers	Units	OrigDataRate	DataStartFrame
100	100	9	38	mm	100	2
Frame#	Time	V_Sacral			R_ASIS			L_ASIS			R_Knee_Lat			R_Knee_Med			R_Thigh_Upper			R_Thigh_Front			R_Thigh_Rear			L_Knee_Lat			L_Knee_Med			L_Thigh_Upper			L_Thigh_Front			L_Thigh_Rear			R_Ankle_Lat			R_Ankle_Med			R_Shank_Upper			R_Shank_Front			R_Shank_Rear			L_Ankle_Lat			L_Ankle_Med			L_Shank_Upper			L_Shank_Front			L_Shank_Rear			R_Heel			R_MTP1			R_MTP5			L_Heel			L_MTP1			L_MTP5			Clavicle			R_Acromium			L_Acromium			LAJC			RAJC			LHJC			RHJC			LKJC			RKJC		
		X1	Y1	Z1	X2	Y2	Z2	X3	Y3	Z3	X4	Y4	Z4	X5	Y5	Z5	X6	Y6	Z6	X7	Y7	Z7	X8	Y8	Z8	X9	Y9	Z9	X10	Y10	Z10	X11	Y11	Z11	X12	Y12	Z12	X13	Y13	Z13	X14	Y14	Z14	X15	Y15	Z15	X16	Y16	Z16	X17	Y17	Z17	X18	Y18	Z18	X19	Y19	Z19	X20	Y20	Z20	X21	Y21	Z21	X22	Y22	Z22	X23	Y23	Z23	X24	Y24	Z24	X25	Y25	Z25	X26	Y26	Z26	X27	Y27	Z27	X28	Y28	Z28	X29	Y29	Z29	X30	Y30	Z30	X31	Y31	Z31	X32	Y32	Z32	X33	Y33	Z33	X34	Y34	Z34	X35	Y35	Z35	X36	Y36	Z36	X37	Y37	Z37	X38	Y38	Z38	

2	0.010000	-304.269981	1054.518400	12.497512	-113.916822	1015.656827	158.361613	-133.455851	1013.652188	-114.498659	-193.840199	515.806763	178.625977	-189.838801	511.315631	65.811765	-102.561297	797.820950	118.886599	-131.547924	684.261340	83.132393	-112.888900	683.135314	160.071265	-211.561135	512.552191	-133.044817	-215.597560	504.724347	-15.214810	-110.162954	798.854126	-65.913940	-135.394342	683.911373	-23.502869	-120.232332	675.885824	-93.889101	-310.034743	82.601846	166.078956	-258.634838	83.101885	91.536834	-173.518704	345.240254	154.443517	-212.931965	241.727705	109.581010	-230.356347	241.145162	183.883961	-294.468866	73.005796	-122.429523	-261.434802	89.799840	-41.531286	-189.116970	331.935963	-108.146682	-218.925380	220.732349	-66.127612	-228.724256	223.243872	-136.955744	-354.873687	37.472153	102.655811	-139.838458	55.259451	170.057573	-164.691391	46.451278	229.225444	-348.677581	34.701244	-69.330498	-121.859764	51.840460	-87.150542	-147.497942	42.390666	-156.725053	-107.830397	1403.592719	18.669061	-205.615501	1469.538678	208.444535	-200.699971	1475.731808	-180.753879	-277.951834	81.402818	-81.980404	-284.334790	82.851865	128.807895	-203.704727	935.031743	-69.582942	-189.766187	936.461791	125.067158	-213.579348	508.638269	-74.129813	-191.839500	513.561197	122.218871	
3	0.020000	-304.553892	1054.551615	12.531899	-114.073199	1015.688629	158.383877	-133.660240	1013.672684	-114.470901	-193.907348	515.809269	178.639397	-189.908583	511.324146	65.827071	-102.709632	797.827971	118.904434	-131.604152	684.295321	83.145538	-113.031181	683.119242	160.065899	-211.613673	512.566621	-133.032584	-215.656935	504.715447	-15.268057	-110.352415	798.874473	-65.900659	-135.517013	683.936633	-23.489581	-120.325054	675.925843	-93.869816	-310.041747	82.595807	166.083873	-258.644593	83.100992	91.538207	-173.556380	345.246648	154.446965	-212.961780	241.724606	109.582064	-230.381308	241.145295	183.890065	-294.466790	73.014109	-122.420610	-261.431184	89.805303	-41.523182	-189.129794	331.946261	-108.130701	-218.927894	220.737250	-66.121373	-228.724701	223.255868	-136.950146	-354.867229	37.446186	102.657126	-139.831360	55.260270	170.051012	-164.696807	46.450491	229.223234	-348.673339	34.708623	-69.323080	-121.857675	51.833306	-87.148689	-147.503573	42.389259	-156.724717	-108.074105	1403.610052	18.683626	-205.841967	1469.536960	208.469097	-200.988861	1475.743414	-180.716827	-277.948987	81.409706	-81.971896	-284.343170	82.848400	128.811040	-203.918793	935.054301	-69.538597	-189.945995	936.492415	125.107687	-213.635304	508.641034	-74.150321	-191.907965	513.566708	122.233234	
4	0.030000	-304.830835	1054.581625	12.568588	-114.228423	1015.719959	158.407082	-133.864344	1013.693708	-114.442194	-193.973167	515.811173	178.653137	-189.976523	511.332734	65.842637	-102.855704	797.836190	118.922630	-131.660150	684.329666	83.158808	-113.173599	683.105844	160.060652	-211.664303	512.581227	-133.019170	-215.716033	504.707188	-15.317228	-110.537034	798.897449	-65.886159	-135.640781	683.961186	-23.476634	-120.416450	675.966446	-93.849465	-310.048534	82.589502	166.089229	-258.654093	83.099957	91.539232	-173.593274	345.252508	154.450241	-212.991313	241.721455	109.583429	-230.406033	241.144415	183.896098	-294.464709	73.022779	-122.412183	-261.427285	89.810835	-41.515177	-189.141735	331.956794	-108.113951	-218.930335	220.742303	-66.114364	-228.723862	223.267530	-136.943921	-354.861096	37.422554	102.659279	-139.824718	55.261117	170.044794	-164.701838	46.449900	229.221010	-348.669261	34.716104	-69.316058	-121.855395	51.826191	-87.147186	-147.508527	42.387982	-156.724264	-108.316582	1403.627217	18.699616	-206.066497	1469.536061	208.494544	-201.275168	1475.754000	-180.678435	-277.945997	81.416807	-81.963680	-284.351313	82.844730	128.814231	-204.130048	935.076117	-69.493519	-190.122373	936.521584	125.148942	-213.690168	508.644207	-74.168199	-191.974845	513.571954	122.247887	
5	0.040000	-305.099241	1054.605895	12.611637	-114.384559	1015.750665	158.433171	-134.071839	1013.716338	-114.410304	-194.038608	515.812222	178.668219	-190.043772	511.341818	65.859752	-103.000284	797.847131	118.942386	-131.720363	684.363743	83.173506	-113.316733	683.097948	160.057126	-211.713329	512.596438	-133.002779	-215.775851	504.699922	-15.357623	-110.715980	798.925429	-65.868544	-135.766319	683.986324	-23.462509	-120.508507	676.008198	-93.826743	-310.054828	82.582425	166.095524	-258.663380	83.098491	91.539757	-173.630142	345.257814	154.453773	-213.021193	241.718339	109.585769	-230.431155	241.141719	183.902387	-294.462728	73.032059	-122.404526	-261.422830	89.816342	-41.507231	-189.152978	331.968102	-108.095370	-218.933117	220.747754	-66.105649	-228.721262	223.278848	-136.936317	-354.856060	37.402788	102.662732	-139.819003	55.261771	170.039091	-164.706176	46.449749	229.218817	-348.665456	34.723876	-69.309652	-121.852720	51.819064	-87.146256	-147.512225	42.387013	-156.723563	-108.560881	1403.644588	18.719461	-206.291449	1469.536974	208.523521	-201.562620	1475.762858	-180.636110	-277.942779	81.424200	-81.955878	-284.359104	82.840458	128.817640	-204.339844	935.097056	-69.445580	-190.295524	936.548285	125.192851	-213.744590	508.648180	-74.180201	-192.041190	513.577020	122.263985	
6	0.050000	-305.357068	1054.622031	12.664587	-114.543639	1015.780579	158.463774	-134.285797	1013.741502	-114.373246	-194.104746	515.812371	178.685467	-190.111726	511.351753	65.879574	-103.144136	797.861998	118.964702	-131.789096	684.396727	83.190850	-113.460425	683.097818	160.056963	-211.761473	512.612584	-132.981928	-215.837445	504.694203	-15.384746	-110.889004	798.960059	-65.846390	-135.893408	684.013555	-23.445714	-120.603496	676.051407	-93.800831	-310.060373	82.574207	166.103108	-258.672512	83.096393	91.539698	-173.667798	345.262704	154.458012	-213.051981	241.715377	109.589633	-230.457223	241.136734	183.909256	-294.460937	73.042093	-122.397790	-261.417661	89.821701	-41.499288	-189.163946	331.980657	-108.074162	-218.936670	220.753804	-66.094520	-228.716860	223.289889	-136.926776	-354.852526	37.387828	102.667762	-139.814569	55.262033	170.034010	-164.709594	46.450229	229.216695	-348.662011	34.732094	-69.303995	-121.849491	51.811932	-87.146013	-147.514252	42.386516	-156.722501	-108.809850	1403.662438	18.745184	-206.518969	1469.540491	208.558324	-201.854531	1475.769480	-180.587603	-277.939299	81.431897	-81.948539	-284.366442	82.835300	128.821403	-204.549105	935.116977	-69.393026	-190.465627	936.571595	125.240931	-213.799459	508.653393	-74.183337	-192.108236	513.582062	122.282521	
7	0.060000	-305.602093	1054.628012	12.730224	-114.707548	1015.809497	158.500131	-134.508472	1013.769905	-114.329396	-194.172713	515.811792	178.705498	-190.181981	511.362777	65.903071	-103.288023	797.881553	118.990326	-131.870238	684.427635	83.211940	-113.603657	683.106929	160.061806	-211.809909	512.629880	-132.955565	-215.901878	504.690757	-15.394648	-111.056574	799.002091	-65.818849	-136.020968	684.044508	-23.424855	-120.703901	676.096101	-93.771470	-310.064958	82.564640	166.112150	-258.681565	83.093575	91.539057	-173.707071	345.267450	154.463440	-213.084119	241.712706	109.595428	-230.484663	241.129370	183.917021	-294.459401	73.052904	-122.391971	-261.411766	89.826768	-41.491282	-189.175312	331.994824	-108.049891	-218.941417	220.760595	-66.080567	-228.711127	223.300800	-136.914995	-354.850457	37.377865	102.674412	-139.811627	55.261730	170.029580	-164.711972	46.451455	229.214686	-348.658994	34.740845	-69.299123	-121.845615	51.804863	-87.146448	-147.514405	42.386619	-156.721000	-109.065918	1403.680923	18.778285	-206.750799	1469.547137	208.600786	-202.153544	1475.773613	-180.531116	-277.935584	81.439836	-81.941627	-284.373262	82.829107	128.825603	-204.758318	935.135762	-69.334575	-190.632905	936.590748	125.294208	-213.855894	508.660318	-74.175107	-192.177347	513.587284	122.304284	
8	0.070000	-305.832760	1054.622568	12.810400	-114.877925	1015.837189	158.543093	-134.741260	1013.801992	-114.277558	-194.243620	515.810825	178.728749	-190.256236	511.374995	65.930986	-103.432767	797.906061	119.019762	-131.967000	684.455419	83.237733	-113.744638	683.125832	160.073235	-211.860215	512.648431	-132.923135	-215.970128	504.690351	-15.384375	-111.219963	799.051341	-65.785638	-136.147290	684.080802	-23.398659	-120.812251	676.142049	-93.738894	-310.068461	82.553672	166.122631	-258.690638	83.090050	91.537927	-173.748760	345.272396	154.470587	-213.117915	241.710463	109.603419	-230.513773	241.119892	183.925990	-294.458165	73.064386	-122.386918	-261.405275	89.831391	-41.483137	-189.187964	332.010834	-108.022512	-218.947739	220.768200	-66.063702	-228.705026	223.311799	-136.900940	-354.849426	37.372293	102.682470	-139.810246	55.260714	170.025755	-164.713302	46.453474	229.212854	-348.656449	34.750136	-69.294980	-121.841086	51.797986	-87.147426	-147.512707	42.387400	-156.719026	-109.330912	1403.700097	18.819701	-206.988163	1469.557132	208.652258	-202.461550	1475.775284	-180.465344	-277.931720	81.447888	-81.935027	-284.379549	82.821861	128.830279	-204.967802	935.153387	-69.269428	-190.797849	936.605240	125.353256	-213.915172	508.669391	-74.153755	-192.249928	513.592910	122.329867	
9	0.080000	-306.049267	1054.605576	12.905942	-115.056065	1015.863404	158.593178	-134.984801	1013.837923	-114.216985	-194.318452	515.809885	178.755554	-190.336148	511.388363	65.963847	-103.579323	797.935292	119.053315	-132.081657	684.479108	83.269045	-113.881106	683.154117	160.092691	-211.914219	512.668265	-132.884573	-216.042974	504.693593	-15.352401	-111.381272	799.106805	-65.746920	-136.270454	684.123866	-23.365994	-120.930882	676.188842	-93.703653	-310.070860	82.541366	166.134374	-258.699847	83.085895	91.536492	-173.793580	345.277859	154.480027	-213.153542	241.708742	109.613761	-230.544731	241.108811	183.936467	-294.457257	73.076321	-122.382366	-261.398428	89.835422	-41.474783	-189.202915	332.028769	-107.992329	-218.955953	220.776620	-66.044134	-228.699864	223.323142	-136.884816	-354.848792	37.369803	102.691479	-139.810371	55.258846	170.022427	-164.713679	46.456266	229.211290	-348.654398	34.759884	-69.291447	-121.835989	51.791459	-87.148715	-147.509386	42.388869	-156.716588	-109.605929	1403.719955	18.869860	-207.231740	1469.570401	208.713652	-202.779743	1475.774788	-180.389473	-277.927843	81.455872	-81.928575	-284.385353	82.813631	128.835433	-205.178126	935.170011	-69.197188	-190.961496	936.614935	125.418321	-213.978597	508.680929	-74.118487	-192.327300	513.599124	122.359701	
10	0.090000	-306.254416	1054.578308	13.016681	-115.242861	1015.887904	158.650660	-135.239174	1013.877591	-114.147342	-194.397927	515.809319	178.786233	-190.423112	511.402678	66.001985	-103.728838	797.968591	119.091194	-132.215267	684.498012	83.306573	-114.010789	683.190477	160.121363	-211.973769	512.689374	-132.840247	-216.120910	504.700761	-15.298924	-111.543359	799.166868	-65.703128	-136.388839	684.174750	-23.325883	-121.061651	676.236030	-93.666373	-310.072241	82.527829	166.147091	-258.709314	83.081198	91.535001	-173.842068	345.284005	154.492371	-213.191048	241.707547	109.626528	-230.577621	241.096721	183.948746	-294.456704	73.088420	-122.377995	-261.391519	89.838737	-41.466166	-189.221155	332.048560	-107.959892	-218.966281	220.785795	-66.022297	-228.697067	223.335083	-136.867007	-354.847949	37.368572	102.700774	-139.811854	55.255996	170.019447	-164.713281	46.459758	229.210126	-348.652833	34.769930	-69.288375	-121.830494	51.785430	-87.150025	-147.504829	42.390966	-156.713744	-109.891281	1403.740472	18.928778	-207.481709	1469.586581	208.785539	-203.108748	1475.772650	-180.303138	-277.924112	81.463578	-81.922080	-284.390778	82.804513	128.841046	-205.390477	935.186030	-69.117725	-191.125611	936.620137	125.489497	-214.047340	508.695067	-74.069586	-192.410520	513.605998	122.394109	
